<?xml version="1.0" standalone="no"?>
<!DOCTYPE svg PUBLIC "-//W3C//DTD SVG 20010904//EN"
 "http://www.w3.org/TR/2001/REC-SVG-20010904/DTD/svg10.dtd">
<svg version="1.0" xmlns="http://www.w3.org/2000/svg"
 width="30.000000pt" height="30.000000pt" viewBox="0 0 30.000000 30.000000"
 preserveAspectRatio="xMidYMid meet">

<g transform="translate(0.000000,30.000000) scale(0.100000,-0.100000)"
fill="#000000" stroke="none">
<path d="M140 290 c0 -5 -13 -16 -28 -24 -34 -18 -52 -54 -52 -105 0 -20 -7
-46 -15 -57 -8 -10 -15 -27 -15 -36 0 -16 12 -18 120 -18 108 0 120 2 120 18
0 9 -7 26 -15 36 -8 11 -15 37 -15 58 0 51 -24 96 -55 104 -14 3 -25 12 -25
20 0 8 -4 14 -10 14 -5 0 -10 -4 -10 -10z"/>
<path d="M112 28 c8 -22 37 -34 55 -22 33 21 26 34 -17 34 -28 0 -40 -4 -38
-12z"/>
</g>
</svg>
